<svg width="241" height="88" viewBox="0 0 241 88" fill="none" xmlns="http://www.w3.org/2000/svg">
<path d="M20.2685 70.464C20.9485 68.968 21.7645 67.0413 22.7165 64.684C23.6685 62.3267 24.6659 59.788 25.7085 57.068C26.7512 54.3027 27.8165 51.492 28.9045 48.636C29.9925 45.7347 31.0125 42.992 31.9645 40.408C32.9165 37.824 33.7325 35.512 34.4125 33.472C35.1379 31.432 35.6592 29.868 35.9765 28.78C33.1205 29.9587 30.6725 31.7493 28.6325 34.152C26.5925 36.5547 25.0512 39.5693 24.0085 43.196C22.9659 42.8333 22.0139 42.1987 21.1525 41.292C20.2912 40.34 19.7245 39.1613 19.4525 37.756C19.9059 35.6707 20.7445 33.7667 21.9685 32.044C23.2379 30.3213 24.8245 28.848 26.7285 27.624C28.6325 26.4 30.8312 25.4707 33.3245 24.836C35.8179 24.156 38.4925 23.816 41.3485 23.816C44.9752 23.816 48.3072 24.36 51.3445 25.448C54.3819 26.4907 56.9885 27.964 59.1645 29.868C61.3405 31.772 63.0405 34.0613 64.2645 36.736C65.4885 39.4107 66.1005 42.38 66.1005 45.644C66.1005 50.0867 65.2845 54.3253 63.6525 58.36C62.0205 62.3947 59.7992 65.9533 56.9885 69.036C54.2232 72.1187 51.0045 74.5667 47.3325 76.38C43.6605 78.2387 39.8072 79.168 35.7725 79.168C32.0552 79.168 28.8592 78.42 26.1845 76.924C23.5552 75.4733 21.5832 73.32 20.2685 70.464ZM44.2725 27.216C42.0059 27.216 39.8525 27.5333 37.8125 28.168C39.8072 28.8933 41.4619 29.664 42.7765 30.48C44.0912 31.2507 44.9979 31.8627 45.4965 32.316C45.1339 32.8147 44.5899 33.6987 43.8645 34.968C43.1845 36.2373 42.3685 37.7787 41.4165 39.592C40.5099 41.4053 39.5352 43.4 38.4925 45.576C37.4499 47.7067 36.4299 49.9053 35.4325 52.172C32.8485 57.9293 30.9672 62.4627 29.7885 65.772C28.6552 69.0813 28.0885 71.3707 28.0885 72.64C28.7232 72.8667 29.4939 73.0253 30.4005 73.116C31.3072 73.2067 32.2819 73.252 33.3245 73.252C36.9965 73.252 40.4645 72.4133 43.7285 70.736C47.0379 69.0133 49.9165 66.724 52.3645 63.868C54.8579 61.012 56.8072 57.7027 58.2125 53.94C59.6632 50.132 60.3885 46.1427 60.3885 41.972C60.3885 37.3027 58.9379 33.676 56.0365 31.092C53.1352 28.508 49.2139 27.216 44.2725 27.216ZM72.6583 76.38C70.0743 76.108 68.0116 74.9747 66.4703 72.98C64.9289 70.9853 64.1583 68.4467 64.1583 65.364C64.1583 63.5507 64.4303 61.6693 64.9743 59.72C65.5183 57.7707 66.2889 55.8893 67.2863 54.076C68.2836 52.2173 69.4623 50.472 70.8223 48.84C72.1823 47.208 73.6556 45.8027 75.2423 44.624C77.7356 42.7653 80.0703 41.836 82.2463 41.836C83.6969 42.6067 85.1249 44.216 86.5303 46.664C86.7569 46.664 86.9609 46.664 87.1423 46.664C87.3236 46.6187 87.5276 46.596 87.7543 46.596C90.1569 46.596 91.3583 48.7267 91.3583 52.988C91.3583 55.844 90.8823 58.564 89.9303 61.148C89.0236 63.6867 87.7316 65.9987 86.0543 68.084C84.4223 70.1693 82.4503 71.9373 80.1383 73.388C77.8716 74.7933 75.3783 75.7907 72.6583 76.38ZM76.1263 54.96C75.3556 56.0027 74.6303 57.136 73.9503 58.36C73.2703 59.584 72.6809 60.8307 72.1823 62.1C71.6836 63.324 71.2983 64.5253 71.0263 65.704C70.7543 66.8373 70.6183 67.8573 70.6183 68.764C70.6183 69.852 70.7996 70.8947 71.1623 71.892C71.5249 72.8893 71.9329 73.456 72.3863 73.592C74.4263 73.1387 76.2849 72.3 77.9623 71.076C79.6849 69.8067 81.1583 68.2427 82.3823 66.384C83.6516 64.5253 84.6263 62.4173 85.3063 60.06C86.0316 57.7027 86.3943 55.1867 86.3943 52.512C86.3943 51.3333 86.3263 50.404 86.1903 49.724C86.0543 49.044 85.8276 48.4547 85.5103 47.956C83.5156 48.5453 81.7249 49.4973 80.1383 50.812C78.5969 52.1267 77.2596 53.5093 76.1263 54.96ZM115.594 45.848C115.413 48.6587 114.914 51.084 114.098 53.124C113.282 55.1187 112.103 56.8867 110.562 58.428C109.066 59.924 107.23 61.284 105.054 62.508C102.878 63.732 100.339 64.9107 97.4379 66.044C97.4379 66.316 97.4152 66.6107 97.3699 66.928C97.3699 67.2 97.3699 67.4947 97.3699 67.812C97.3699 68.4013 97.4152 69.0133 97.5059 69.648C97.5966 70.2827 97.7552 70.872 97.9819 71.416C98.2086 71.96 98.5259 72.4133 98.9339 72.776C99.3419 73.0933 99.8632 73.252 100.498 73.252C101.722 73.252 102.923 72.98 104.102 72.436C105.281 71.892 106.391 71.2347 107.434 70.464C108.522 69.648 109.519 68.7867 110.426 67.88C111.378 66.928 112.217 66.0667 112.942 65.296C113.395 65.704 113.781 66.0893 114.098 66.452C112.058 69.172 109.814 71.4387 107.366 73.252C104.963 75.02 102.674 76.1533 100.498 76.652C97.3699 76.2893 94.9219 75.156 93.1539 73.252C91.4312 71.3027 90.5699 68.968 90.5699 66.248C90.5699 64.3893 90.8192 62.508 91.3179 60.604C91.8619 58.6547 92.5872 56.796 93.4939 55.028C94.4459 53.2147 95.5339 51.5147 96.7579 49.928C98.0272 48.3413 99.3646 46.9587 100.77 45.78C102.221 44.6013 103.694 43.672 105.19 42.992C106.731 42.312 108.25 41.972 109.746 41.972C111.831 42.244 113.781 43.536 115.594 45.848ZM110.902 48.092C109.678 48.2733 108.409 48.772 107.094 49.588C105.779 50.404 104.533 51.492 103.354 52.852C102.221 54.212 101.178 55.7987 100.226 57.612C99.2739 59.4253 98.5259 61.3747 97.9819 63.46C101.609 61.6467 104.623 59.4253 107.026 56.796C109.429 54.1213 110.721 51.22 110.902 48.092ZM143.698 79.032C143.607 79.0773 143.517 79.1 143.426 79.1C143.335 79.1 143.154 79.1 142.882 79.1C142.247 79.1 141.499 78.9867 140.638 78.76C139.822 78.5787 139.006 78.3293 138.19 78.012C137.419 77.74 136.739 77.4227 136.15 77.06C135.606 76.6973 135.266 76.38 135.13 76.108C135.085 75.4733 135.062 74.816 135.062 74.136C135.062 73.456 135.062 72.7987 135.062 72.164C135.062 67.0867 135.425 61.7827 136.15 56.252C136.921 50.7213 138.167 44.7373 139.89 38.3C140.071 37.6653 140.253 36.872 140.434 35.92C140.661 34.9227 140.887 33.8573 141.114 32.724C140.026 33.5853 138.734 34.968 137.238 36.872C135.742 38.7307 134.155 40.952 132.478 43.536C130.846 46.0747 129.191 48.8853 127.514 51.968C125.882 55.0053 124.386 58.1107 123.026 61.284C121.666 64.412 120.487 67.5173 119.49 70.6C118.538 73.6827 117.949 76.5387 117.722 79.168C115.546 78.5333 114.027 77.8987 113.166 77.264C112.35 76.6293 111.942 75.8587 111.942 74.952C111.942 74.136 112.191 72.98 112.69 71.484C113.189 69.988 113.891 68.22 114.798 66.18C115.705 64.14 116.815 61.8733 118.13 59.38C119.445 56.8413 120.895 54.1213 122.482 51.22C124.295 47.9107 126.063 44.8053 127.786 41.904C129.554 39.0027 131.277 36.3733 132.954 34.016C134.631 31.6587 136.263 29.6187 137.85 27.896C139.482 26.1733 141.091 24.8587 142.678 23.952C143.313 23.952 144.151 24.1107 145.194 24.428C146.282 24.7453 147.325 25.1307 148.322 25.584C149.365 26.0373 150.271 26.5133 151.042 27.012C151.858 27.4653 152.311 27.8507 152.402 28.168C151.767 29.4373 151.019 31.3413 150.158 33.88C149.297 36.4187 148.413 39.2973 147.506 42.516C146.645 45.7347 145.806 49.1573 144.99 52.784C144.219 56.3653 143.607 59.8107 143.154 63.12C144.197 60.6267 145.398 58.0427 146.758 55.368C148.163 52.648 149.637 49.9733 151.178 47.344C152.719 44.6693 154.283 42.0853 155.87 39.592C157.502 37.0987 159.089 34.832 160.63 32.792C162.171 30.7067 163.599 28.8933 164.914 27.352C166.274 25.8107 167.475 24.6773 168.518 23.952C169.153 23.952 169.991 24.1107 171.034 24.428C172.122 24.7453 173.165 25.1307 174.162 25.584C175.205 26.0373 176.111 26.5133 176.882 27.012C177.698 27.4653 178.151 27.8507 178.242 28.168C176.791 30.752 175.522 33.9027 174.434 37.62C173.346 41.3373 172.417 45.236 171.646 49.316C170.921 53.396 170.354 57.4533 169.946 61.488C169.583 65.4773 169.402 69.0587 169.402 72.232C169.402 73.2747 169.402 74.3627 169.402 75.496C169.402 76.6293 169.447 77.808 169.538 79.032C168.903 79.032 168.133 78.9413 167.226 78.76C166.365 78.624 165.503 78.42 164.642 78.148C163.826 77.876 163.078 77.5587 162.398 77.196C161.718 76.8787 161.242 76.516 160.97 76.108C160.925 75.4733 160.902 74.816 160.902 74.136C160.902 73.456 160.902 72.7987 160.902 72.164C160.902 67.0867 161.265 61.7827 161.99 56.252C162.761 50.7213 164.007 44.7373 165.73 38.3C165.911 37.6653 166.115 36.804 166.342 35.716C166.569 34.628 166.795 33.4947 167.022 32.316C165.753 32.9507 164.302 34.1747 162.67 35.988C161.083 37.756 159.451 39.932 157.774 42.516C156.142 45.0547 154.51 47.888 152.878 51.016C151.291 54.144 149.841 57.34 148.526 60.604C147.257 63.8227 146.169 67.0413 145.262 70.26C144.401 73.4333 143.879 76.3573 143.698 79.032ZM197.758 46.528C198.211 46.528 198.732 46.6187 199.322 46.8C199.956 46.936 200.523 47.14 201.022 47.412C201.52 47.6387 201.928 47.888 202.246 48.16C202.608 48.432 202.79 48.6813 202.79 48.908C201.883 50.812 201.044 52.7387 200.274 54.688C199.503 56.592 198.846 58.428 198.302 60.196C197.758 61.964 197.327 63.6187 197.01 65.16C196.738 66.7013 196.602 68.0387 196.602 69.172C196.602 70.4413 196.738 71.5067 197.01 72.368C197.282 73.184 197.735 73.7733 198.37 74.136C197.826 74.4987 197.123 74.7933 196.262 75.02C195.4 75.2467 194.63 75.36 193.95 75.36C191.502 75.36 190.278 73.6827 190.278 70.328C190.278 67.744 191.139 64.208 192.862 59.72C191.955 61.8053 190.912 63.7773 189.734 65.636C188.555 67.4493 187.354 69.0587 186.13 70.464C184.906 71.8693 183.659 73.0253 182.39 73.932C181.166 74.7933 180.032 75.3147 178.99 75.496C177.312 75.4053 175.952 74.612 174.91 73.116C173.867 71.5747 173.346 69.6253 173.346 67.268C173.346 64.7293 173.89 62.0547 174.978 59.244C176.066 56.4333 177.448 53.8267 179.126 51.424C180.848 49.0213 182.707 47.0267 184.702 45.44C186.696 43.808 188.623 42.9467 190.482 42.856C190.935 42.992 191.434 43.264 191.978 43.672C192.567 44.08 193.111 44.556 193.61 45.1C194.154 45.644 194.607 46.2107 194.97 46.8C195.332 47.344 195.536 47.82 195.582 48.228C193.768 48.5 191.887 49.384 189.938 50.88C188.034 52.376 186.288 54.1893 184.702 56.32C183.16 58.4053 181.891 60.6493 180.894 63.052C179.896 65.4547 179.398 67.6987 179.398 69.784C179.398 70.6453 179.715 71.1893 180.35 71.416C181.664 71.144 183.183 70.0333 184.906 68.084C186.628 66.0893 188.714 63.0293 191.162 58.904C191.615 58.088 192.114 57.1813 192.658 56.184C193.247 55.1867 193.836 54.144 194.426 53.056C195.015 51.968 195.582 50.88 196.126 49.792C196.715 48.6587 197.259 47.5707 197.758 46.528ZM202.641 69.444C202.641 69.036 202.664 68.5373 202.709 67.948C202.8 67.3133 202.936 66.4973 203.117 65.5C203.299 64.4573 203.525 63.2107 203.797 61.76C204.115 60.3093 204.5 58.564 204.953 56.524C205.044 56.0707 205.248 55.3453 205.565 54.348C205.883 53.3507 206.291 52.308 206.789 51.22C207.333 50.0867 207.968 48.9987 208.693 47.956C209.464 46.9133 210.371 46.1427 211.413 45.644C212.184 45.8253 213.204 46.3013 214.473 47.072C215.743 47.7973 216.831 48.8173 217.737 50.132C216.695 51.3107 215.811 52.4893 215.085 53.668C214.405 54.8467 213.771 56.0707 213.181 57.34C212.637 58.6093 212.116 59.924 211.617 61.284C211.164 62.644 210.643 64.072 210.053 65.568C209.555 66.8373 209.101 68.152 208.693 69.512C208.285 70.8267 208.059 71.9827 208.013 72.98C208.013 73.796 207.991 74.3627 207.945 74.68C207.945 75.0427 207.832 75.224 207.605 75.224C207.424 75.224 207.061 75.1107 206.517 74.884C205.973 74.6573 205.407 74.3173 204.817 73.864C204.273 73.3653 203.775 72.7533 203.321 72.028C202.868 71.3027 202.641 70.4413 202.641 69.444ZM215.629 39.932C215.629 39.66 215.697 39.252 215.833 38.708C215.607 38.4813 215.403 38.1413 215.221 37.688C215.085 37.2347 215.017 36.8267 215.017 36.464C215.017 36.056 215.063 35.512 215.153 34.832C215.289 34.1067 215.448 33.336 215.629 32.52C215.811 31.704 216.037 30.8653 216.309 30.004C216.581 29.0973 216.853 28.2813 217.125 27.556C217.669 27.556 218.327 27.7147 219.097 28.032C219.913 28.304 220.729 28.6893 221.545 29.188C222.361 29.6413 223.109 30.1627 223.789 30.752C224.469 31.296 224.991 31.8173 225.353 32.316C224.855 32.8147 224.197 33.5173 223.381 34.424C222.565 35.2853 221.772 36.2147 221.001 37.212C220.231 38.164 219.528 39.0707 218.893 39.932C218.259 40.7933 217.851 41.4053 217.669 41.768C217.125 41.6773 216.649 41.4507 216.241 41.088C215.833 40.68 215.629 40.2947 215.629 39.932ZM238.704 46.936C238.658 47.7973 238.5 48.704 238.228 49.656C238.001 50.5627 237.706 51.4013 237.344 52.172C236.981 52.8973 236.596 53.5093 236.188 54.008C235.78 54.5067 235.394 54.756 235.032 54.756C234.533 54.7107 234.238 54.3707 234.148 53.736C234.148 53.6 234.193 53.396 234.284 53.124C234.42 52.8067 234.556 52.4667 234.692 52.104C234.828 51.7413 234.941 51.3787 235.032 51.016C235.168 50.6533 235.236 50.336 235.236 50.064C235.236 49.4293 235.077 48.908 234.76 48.5C234.488 48.0467 234.102 47.82 233.604 47.82C231.79 47.82 230.408 48.9533 229.456 51.22C228.504 53.4867 228.028 56.8187 228.028 61.216C228.028 61.6693 228.05 61.9413 228.096 62.032C229.048 61.9867 229.886 61.964 230.612 61.964C231.382 61.9187 232.13 61.896 232.856 61.896C232.901 61.9867 232.924 62.168 232.924 62.44C232.924 62.848 232.833 63.1427 232.652 63.324C231.609 63.5507 230.77 63.7547 230.136 63.936C229.546 64.072 229.093 64.208 228.776 64.344C228.458 64.48 228.254 64.6387 228.164 64.82C228.118 64.956 228.096 65.16 228.096 65.432C228.096 65.7947 228.096 66.1573 228.096 66.52C228.141 66.8827 228.164 67.336 228.164 67.88C228.164 71.688 227.121 74.748 225.036 77.06C222.996 79.372 220.14 80.7093 216.468 81.072C215.833 81.0267 215.176 80.8453 214.496 80.528C213.816 80.2107 213.158 79.8027 212.524 79.304C211.934 78.8053 211.413 78.2387 210.96 77.604C210.506 77.0147 210.189 76.4027 210.008 75.768C210.008 74.0453 210.37 72.4133 211.096 70.872C211.821 69.2853 212.796 67.9027 214.02 66.724C215.289 65.5 216.762 64.5253 218.44 63.8C220.162 63.0293 222.021 62.576 224.016 62.44C224.016 61.3067 223.902 60.196 223.676 59.108C223.449 58.02 223.2 56.9773 222.928 55.98C222.701 54.9373 222.474 53.94 222.248 52.988C222.021 51.9907 221.908 51.016 221.908 50.064C221.908 48.84 222.157 47.6387 222.656 46.46C223.154 45.236 223.812 44.1253 224.628 43.128C225.444 42.0853 226.396 41.2013 227.484 40.476C228.572 39.7507 229.705 39.252 230.884 38.98C231.382 39.116 232.04 39.524 232.856 40.204C233.717 40.8387 234.556 41.564 235.372 42.38C236.188 43.196 236.913 44.0347 237.548 44.896C238.182 45.712 238.568 46.392 238.704 46.936ZM216.264 77.944C217.352 77.4907 218.372 76.8333 219.324 75.972C220.321 75.1107 221.182 74.136 221.908 73.048C222.633 71.96 223.2 70.804 223.608 69.58C224.061 68.356 224.288 67.1547 224.288 65.976C223.381 66.112 222.384 66.5427 221.296 67.268C220.208 67.948 219.188 68.7867 218.236 69.784C217.284 70.736 216.49 71.7333 215.856 72.776C215.221 73.8187 214.904 74.7253 214.904 75.496C214.904 76.4933 215.357 77.3093 216.264 77.944Z" fill="#5DE36D"/>
</svg>
